<?xml version="1.0" encoding="UTF-8"?>
<svg width="610px" height="610px" viewBox="0 0 610 610" version="1.1" xmlns="http://www.w3.org/2000/svg" xmlns:xlink="http://www.w3.org/1999/xlink">
    <!-- Generator: Sketch 48.2 (47327) - http://www.bohemiancoding.com/sketch -->
    <title>g2v</title>
    <desc>Created with Sketch.</desc>
    <defs></defs>
    <g id="Page-1" stroke="none" stroke-width="1" fill="none" fill-rule="evenodd">
        <g id="icon" fill="#81D308" fill-rule="nonzero">
            <circle id="Oval" cx="305" cy="305" r="305"></circle>
        </g>
        <path d="M94.8109375,289.6 C96.1442775,289.6 97.8775935,289.400002 100.010937,289 C102.144282,288.599998 104.210927,287.900005 106.210938,286.9 C108.210948,285.899995 109.944263,284.466676 111.410937,282.6 C112.877611,280.733324 113.610937,278.400014 113.610937,275.6 L113.610937,236 C113.610937,231.466644 114.544261,227.566683 116.410937,224.3 C118.277614,221.033317 120.544258,218.300011 123.210938,216.1 C125.877617,213.899989 128.67759,212.266672 131.610938,211.2 C134.544286,210.133328 137.077594,209.6 139.210938,209.6 L157.410937,209.6 L157.410937,226.4 L146.410937,226.4 C143.610924,226.4 141.377612,226.866662 139.710938,227.8 C138.044263,228.733338 136.777608,229.899993 135.910937,231.3 C135.044266,232.700007 134.510939,234.199992 134.310937,235.8 C134.110937,237.400008 134.010938,238.933326 134.010938,240.4 L134.010938,278 C134.010938,281.866686 133.277612,285.066654 131.810937,287.6 C130.344264,290.133346 128.577615,292.166659 126.510937,293.7 C124.44426,295.233341 122.310948,296.33333 120.110937,297 C117.910926,297.66667 116.010945,298.066666 114.410937,298.2 L114.410937,298.6 C116.010945,298.733334 117.910926,299.066664 120.110937,299.6 C122.310948,300.133336 124.44426,301.133326 126.510937,302.6 C128.577615,304.066674 130.344264,306.166653 131.810937,308.9 C133.277612,311.633347 134.010938,315.33331 134.010938,320 L134.010938,356.4 C134.010938,357.866674 134.110937,359.399992 134.310937,361 C134.510939,362.600008 135.044266,364.099993 135.910937,365.5 C136.777608,366.900007 138.044263,368.066662 139.710938,369 C141.377612,369.933338 143.610924,370.4 146.410937,370.4 L157.410937,370.4 L157.410937,387.2 L139.210938,387.2 C137.077594,387.2 134.544286,386.666672 131.610938,385.6 C128.67759,384.533328 125.877617,382.900011 123.210938,380.7 C120.544258,378.499989 118.277614,375.766683 116.410937,372.5 C114.544261,369.233317 113.610937,365.333356 113.610937,360.8 L113.610937,322.6 C113.610937,319.399984 112.877611,316.80001 111.410937,314.8 C109.944263,312.79999 108.210948,311.233339 106.210938,310.1 C104.210927,308.966661 102.144282,308.200002 100.010937,307.8 C97.8775935,307.399998 96.1442775,307.2 94.8109375,307.2 L94.8109375,289.6 Z M151.207812,289.6 C152.541153,289.6 154.274469,289.400002 156.407812,289 C158.541156,288.599998 160.607802,287.900005 162.607813,286.9 C164.607822,285.899995 166.341138,284.466676 167.807813,282.6 C169.274487,280.733324 170.007812,278.400014 170.007812,275.6 L170.007812,236 C170.007812,231.466644 170.941137,227.566683 172.807813,224.3 C174.674488,221.033317 176.941133,218.300011 179.607813,216.1 C182.274493,213.899989 185.074465,212.266672 188.007813,211.2 C190.94116,210.133328 193.474469,209.6 195.607813,209.6 L213.807813,209.6 L213.807813,226.4 L202.807813,226.4 C200.007799,226.4 197.774488,226.866662 196.107813,227.8 C194.441138,228.733338 193.174484,229.899993 192.307813,231.3 C191.441142,232.700007 190.907814,234.199992 190.707813,235.8 C190.507812,237.400008 190.407813,238.933326 190.407813,240.4 L190.407813,278 C190.407813,281.866686 189.674487,285.066654 188.207813,287.6 C186.741139,290.133346 184.97449,292.166659 182.907812,293.7 C180.841136,295.233341 178.707824,296.33333 176.507812,297 C174.307801,297.66667 172.407821,298.066666 170.807813,298.2 L170.807813,298.6 C172.407821,298.733334 174.307801,299.066664 176.507812,299.6 C178.707824,300.133336 180.841136,301.133326 182.907812,302.6 C184.97449,304.066674 186.741139,306.166653 188.207813,308.9 C189.674487,311.633347 190.407813,315.33331 190.407813,320 L190.407813,356.4 C190.407813,357.866674 190.507812,359.399992 190.707813,361 C190.907814,362.600008 191.441142,364.099993 192.307813,365.5 C193.174484,366.900007 194.441138,368.066662 196.107813,369 C197.774488,369.933338 200.007799,370.4 202.807813,370.4 L213.807813,370.4 L213.807813,387.2 L195.607813,387.2 C193.474469,387.2 190.94116,386.666672 188.007813,385.6 C185.074465,384.533328 182.274493,382.900011 179.607813,380.7 C176.941133,378.499989 174.674488,375.766683 172.807813,372.5 C170.941137,369.233317 170.007812,365.333356 170.007812,360.8 L170.007812,322.6 C170.007812,319.399984 169.274487,316.80001 167.807813,314.8 C166.341138,312.79999 164.607822,311.233339 162.607813,310.1 C160.607802,308.966661 158.541156,308.200002 156.407812,307.8 C154.274469,307.399998 152.541153,307.2 151.207812,307.2 L151.207812,289.6 Z M332.001562,276.8 L306.201563,276.8 L306.201563,319.8 C306.201563,322.46668 306.268229,325.099987 306.401563,327.7 C306.534897,330.300013 307.034892,332.633323 307.901563,334.7 C308.768234,336.766677 310.101554,338.433327 311.901563,339.7 C313.701572,340.966673 316.334879,341.6 319.801563,341.6 C321.934907,341.6 324.134884,341.400002 326.401563,341 C328.668241,340.599998 330.734887,339.866672 332.601562,338.8 L332.601562,355.2 C330.468219,356.400006 327.701579,357.233331 324.301563,357.7 C320.901545,358.166669 318.268239,358.4 316.401563,358.4 C309.468194,358.4 304.101581,357.433343 300.301563,355.5 C296.501544,353.566657 293.701572,351.066682 291.901563,348 C290.101554,344.933318 289.034898,341.500019 288.701563,337.7 C288.368227,333.899981 288.201563,330.066686 288.201563,326.2 L288.201563,276.8 L267.401563,276.8 L267.401563,261.2 L288.201563,261.2 L288.201563,234.6 L306.201563,234.6 L306.201563,261.2 L332.001562,261.2 L332.001562,276.8 Z M457.995313,307.2 C456.528639,307.2 454.728657,307.399998 452.595312,307.8 C450.461969,308.200002 448.395323,308.899995 446.395313,309.9 C444.395302,310.900005 442.695319,312.333324 441.295313,314.2 C439.895306,316.066676 439.195312,318.399986 439.195312,321.2 L439.195312,360.8 C439.195312,365.333356 438.261989,369.233317 436.395313,372.5 C434.528636,375.766683 432.261993,378.499989 429.595312,380.7 C426.928633,382.900011 424.128661,384.533328 421.195312,385.6 C418.261964,386.666672 415.728656,387.2 413.595312,387.2 L395.395313,387.2 L395.395313,370.4 L406.395313,370.4 C409.195326,370.4 411.428637,369.933338 413.095312,369 C414.761988,368.066662 416.028642,366.900007 416.895313,365.5 C417.761984,364.099993 418.295312,362.600008 418.495313,361 C418.695313,359.399992 418.795313,357.866674 418.795313,356.4 L418.795313,318.8 C418.795313,314.933314 419.528638,311.733346 420.995313,309.2 C422.461986,306.666654 424.228635,304.666674 426.295313,303.2 C428.36199,301.733326 430.495301,300.66667 432.695312,300 C434.895324,299.33333 436.795305,298.866668 438.395313,298.6 L438.395313,298.2 C436.795305,298.066666 434.895324,297.733336 432.695312,297.2 C430.495301,296.666664 428.36199,295.666674 426.295313,294.2 C424.228635,292.733326 422.461986,290.633347 420.995313,287.9 C419.528638,285.166653 418.795313,281.46669 418.795313,276.8 L418.795313,240.4 C418.795313,238.933326 418.695313,237.400008 418.495313,235.8 C418.295312,234.199992 417.761984,232.700007 416.895313,231.3 C416.028642,229.899993 414.761988,228.733338 413.095312,227.8 C411.428637,226.866662 409.195326,226.4 406.395313,226.4 L395.395313,226.4 L395.395313,209.6 L413.595312,209.6 C415.728656,209.6 418.261964,210.133328 421.195312,211.2 C424.128661,212.266672 426.928633,213.899989 429.595312,216.1 C432.261993,218.300011 434.528636,221.033317 436.395313,224.3 C438.261989,227.566683 439.195312,231.466644 439.195312,236 L439.195312,274.2 C439.195312,277.400016 439.895306,279.99999 441.295313,282 C442.695319,284.00001 444.395302,285.566661 446.395313,286.7 C448.395323,287.833339 450.461969,288.599998 452.595312,289 C454.728657,289.400002 456.528639,289.6 457.995313,289.6 L457.995313,307.2 Z M514.392187,307.2 C512.925514,307.2 511.125532,307.399998 508.992188,307.8 C506.858844,308.200002 504.792198,308.899995 502.792188,309.9 C500.792177,310.900005 499.092195,312.333324 497.692188,314.2 C496.292181,316.066676 495.592188,318.399986 495.592188,321.2 L495.592188,360.8 C495.592188,365.333356 494.658864,369.233317 492.792188,372.5 C490.925511,375.766683 488.658868,378.499989 485.992188,380.7 C483.325507,382.900011 480.525536,384.533328 477.592188,385.6 C474.658839,386.666672 472.125531,387.2 469.992188,387.2 L451.792188,387.2 L451.792188,370.4 L462.792188,370.4 C465.592201,370.4 467.825513,369.933338 469.492188,369 C471.158863,368.066662 472.425516,366.900007 473.292188,365.5 C474.158859,364.099993 474.692187,362.600008 474.892188,361 C475.092189,359.399992 475.192188,357.866674 475.192188,356.4 L475.192188,318.8 C475.192188,314.933314 475.925514,311.733346 477.392188,309.2 C478.858862,306.666654 480.625511,304.666674 482.692188,303.2 C484.758865,301.733326 486.892177,300.66667 489.092188,300 C491.292199,299.33333 493.19218,298.866668 494.792188,298.6 L494.792188,298.2 C493.19218,298.066666 491.292199,297.733336 489.092188,297.2 C486.892177,296.666664 484.758865,295.666674 482.692188,294.2 C480.625511,292.733326 478.858862,290.633347 477.392188,287.9 C475.925514,285.166653 475.192188,281.46669 475.192188,276.8 L475.192188,240.4 C475.192188,238.933326 475.092189,237.400008 474.892188,235.8 C474.692187,234.199992 474.158859,232.700007 473.292188,231.3 C472.425516,229.899993 471.158863,228.733338 469.492188,227.8 C467.825513,226.866662 465.592201,226.4 462.792188,226.4 L451.792188,226.4 L451.792188,209.6 L469.992188,209.6 C472.125531,209.6 474.658839,210.133328 477.592188,211.2 C480.525536,212.266672 483.325507,213.899989 485.992188,216.1 C488.658868,218.300011 490.925511,221.033317 492.792188,224.3 C494.658864,227.566683 495.592188,231.466644 495.592188,236 L495.592188,274.2 C495.592188,277.400016 496.292181,279.99999 497.692188,282 C499.092195,284.00001 500.792177,285.566661 502.792188,286.7 C504.792198,287.833339 506.858844,288.599998 508.992188,289 C511.125532,289.400002 512.925514,289.6 514.392187,289.6 L514.392187,307.2 Z" id="{{-t-}}" fill="#FFFFFF"></path>
    </g>
</svg>