<?xml version="1.0" encoding="UTF-8"?>
<svg width="610px" height="610px" viewBox="0 0 610 610" version="1.1" xmlns="http://www.w3.org/2000/svg" xmlns:xlink="http://www.w3.org/1999/xlink">
    <!-- Generator: Sketch 48.2 (47327) - http://www.bohemiancoding.com/sketch -->
    <title>g2v</title>
    <desc>Created with Sketch.</desc>
    <defs></defs>
    <g id="Page-1" stroke="none" stroke-width="1" fill="none" fill-rule="evenodd">
        <g id="icon" fill="#81D308" fill-rule="nonzero">
            <circle id="Oval" cx="305" cy="305" r="305"></circle>
        </g>
        <path d="M179.496,432.744 L149.256,432.744 C144.071974,432.744 139.224023,431.976008 134.712,430.44 C130.199977,428.903992 126.264017,426.408017 122.904,422.952 C119.543983,419.495983 116.90401,415.128026 114.984,409.848 C113.06399,404.567974 112.104,398.184037 112.104,390.696 L112.104,341.16 C112.104,336.743978 110.808013,333.192013 108.216,330.504 C105.623987,327.815987 102.600017,325.800007 99.144,324.456 C95.6879827,323.111993 92.2320173,322.248002 88.776,321.864 C85.3199827,321.479998 82.7280086,321.288 81,321.288 L81,288.456 C82.7280086,288.456 85.3199827,288.264002 88.776,287.88 C92.2320173,287.495998 95.6879827,286.632007 99.144,285.288 C102.600017,283.943993 105.623987,281.928013 108.216,279.24 C110.808013,276.551987 112.104,273.000022 112.104,268.584 L112.104,218.76 C112.104,211.271963 113.015991,204.888026 114.84,199.608 C116.664009,194.327974 119.255983,190.008017 122.616,186.648 C125.976017,183.287983 129.911977,180.840008 134.424,179.304 C138.936023,177.767992 143.879973,177 149.256,177 L179.496,177 L179.496,209.832 L165.384,209.832 C160.967978,209.832 157.512012,210.407994 155.016,211.56 C152.519988,212.712006 150.648006,214.199991 149.4,216.024 C148.151994,217.848009 147.384001,219.863989 147.096,222.072 C146.807999,224.280011 146.664,226.34399 146.664,228.264 L146.664,274.632 C146.664,281.352034 145.70401,286.631981 143.784,290.472 C141.86399,294.312019 139.512014,297.23999 136.728,299.256 C133.943986,301.27201 130.872017,302.615997 127.512,303.288 C124.151983,303.960003 120.936015,304.391999 117.864,304.584 L117.864,305.16 C120.936015,305.352001 124.151983,305.735997 127.512,306.312 C130.872017,306.888003 133.943986,308.18399 136.728,310.2 C139.512014,312.21601 141.86399,315.143981 143.784,318.984 C145.70401,322.824019 146.664,328.103966 146.664,334.824 L146.664,381.48 C146.664,383.40001 146.807999,385.463989 147.096,387.672 C147.384001,389.880011 148.151994,391.895991 149.4,393.72 C150.648006,395.544009 152.519988,397.031994 155.016,398.184 C157.512012,399.336006 160.967978,399.912 165.384,399.912 L179.496,399.912 L179.496,432.744 Z M360.2,263.4 L308.6,263.4 L308.6,349.4 C308.6,354.73336 308.733332,359.999974 309,365.2 C309.266668,370.400026 310.266658,375.066646 312,379.2 C313.733342,383.333354 316.399982,386.666654 320,389.2 C323.600018,391.733346 328.866632,393 335.8,393 C340.066688,393 344.466644,392.600004 349,391.8 C353.533356,390.999996 357.666648,389.533344 361.4,387.4 L361.4,420.2 C357.133312,422.600012 351.600034,424.266662 344.8,425.2 C337.999966,426.133338 332.733352,426.6 329,426.6 C315.133264,426.6 304.400038,424.666686 296.8,420.8 C289.199962,416.933314 283.600018,411.933364 280,405.8 C276.399982,399.666636 274.26667,392.800038 273.6,385.2 C272.93333,377.599962 272.6,369.933372 272.6,362.2 L272.6,263.4 L231,263.4 L231,232.2 L272.6,232.2 L272.6,179 L308.6,179 L308.6,232.2 L360.2,232.2 L360.2,263.4 Z M430.646,177 L461.75,177 C466.550024,177 471.157978,177.767992 475.574,179.304 C479.990022,180.840008 483.877983,183.335983 487.238,186.792 C490.598017,190.248017 493.237991,194.615974 495.158,199.896 C497.07801,205.176026 498.038,211.559963 498.038,219.048 L498.038,268.584 C498.038,273.000022 499.285988,276.551987 501.782,279.24 C504.278013,281.928013 507.205983,283.943993 510.566,285.288 C513.926017,286.632007 517.333983,287.495998 520.79,287.88 C524.246017,288.264002 527.02999,288.456 529.142,288.456 L529.142,321.288 C527.02999,321.288 524.246017,321.479998 520.79,321.864 C517.333983,322.248002 513.926017,323.111993 510.566,324.456 C507.205983,325.800007 504.278013,327.815987 501.782,330.504 C499.285988,333.192013 498.038,336.743978 498.038,341.16 L498.038,390.984 C498.038,398.472037 497.07801,404.855974 495.158,410.136 C493.237991,415.416026 490.646016,419.735983 487.382,423.096 C484.117984,426.456017 480.230023,428.903992 475.718,430.44 C471.205978,431.976008 466.262027,432.744 460.886,432.744 L430.646,432.744 L430.646,399.912 L444.758,399.912 C449.174022,399.912 452.629988,399.336006 455.126,398.184 C457.622013,397.031994 459.493994,395.544009 460.742,393.72 C461.990006,391.895991 462.757999,389.880011 463.046,387.672 C463.334002,385.463989 463.478,383.40001 463.478,381.48 L463.478,335.112 C463.478,328.391966 464.437991,323.112019 466.358,319.272 C468.27801,315.431981 470.629986,312.50401 473.414,310.488 C476.198014,308.47199 479.269983,307.176003 482.63,306.6 C485.990017,306.023997 489.205985,305.544002 492.278,305.16 L492.278,304.584 C489.205985,304.391999 485.990017,304.008003 482.63,303.432 C479.269983,302.855997 476.198014,301.56001 473.414,299.544 C470.629986,297.52799 468.27801,294.600019 466.358,290.76 C464.437991,286.919981 463.478,281.640034 463.478,274.92 L463.478,228.264 C463.478,226.34399 463.334002,224.280011 463.046,222.072 C462.757999,219.863989 461.990006,217.848009 460.742,216.024 C459.493994,214.199991 457.622013,212.712006 455.126,211.56 C452.629988,210.407994 449.174022,209.832 444.758,209.832 L430.646,209.832 L430.646,177 Z" id="{-t-}" fill="#FFFFFF"></path>
    </g>
</svg>